<svg xmlns="http://www.w3.org/2000/svg" xmlns:xlink="http://www.w3.org/1999/xlink" viewBox="0 0 1920 1080"><defs><style>.cls-1{fill:none;}.cls-2{fill:#999;}.cls-3{clip-path:url(#clip-path);}.cls-4{clip-path:url(#clip-path-2);}</style><clipPath id="clip-path"><path class="cls-1" d="M598.39,492c115.73,531.42-760.85,415.88-799.84,616C-224,1223.74-798.22,1321.81-978,682-1160.53,32.43-820.94-404.21-210-289.5,228.62-207.13,506.51,70.08,598.39,492Z"/></clipPath><clipPath id="clip-path-2"><rect class="cls-1" x="-1860.97" y="129" width="1678.5" height="824" rx="80.19"/></clipPath></defs><title>JEMA-Horarios-Bolinha</title><g id="Camada_8" data-name="Camada 8"><path class="cls-2" d="M665,182.42c0-26.19-22.39-47.42-50-47.42H532.25c-36.67,24.55-60.15,60.94-63.08,101.47-5.94,82.39,71.88,134.57,176,124.23q10.07-1,19.83-2.46Z"/></g><g id="Camada_1" data-name="Camada 1"><g class="cls-3"><g class="cls-4"><image width="1920" height="1080" transform="translate(-2124.24 -221.98) scale(1.22 1.14)" xlink:href="../IMAGEM%201.jpg"/></g></g></g></svg>